<?xml version="1.0" standalone="no"?>
<!DOCTYPE svg PUBLIC "-//W3C//DTD SVG 20010904//EN"
 "http://www.w3.org/TR/2001/REC-SVG-20010904/DTD/svg10.dtd">
<svg version="1.0" xmlns="http://www.w3.org/2000/svg"
 width="250.000000pt" height="58.000000pt" viewBox="0 0 250.000000 58.000000"
 preserveAspectRatio="xMidYMid meet">
<metadata>
Created by potrace 1.15, written by Peter Selinger 2001-2017
</metadata>
<g transform="translate(0.000000,58.000000) scale(0.100000,-0.100000)"
fill="#000000" stroke="none">
<path d="M110 290 l0 -200 35 0 35 0 0 68 c0 62 3 71 29 96 l29 27 66 -95 67
-96 45 0 c34 0 43 3 38 13 -5 6 -43 61 -86 121 l-79 110 78 78 78 78 -45 0
c-43 0 -48 -4 -132 -87 l-88 -88 0 88 0 87 -35 0 -35 0 0 -200z"/>
<path d="M490 336 c0 -143 2 -155 23 -187 12 -19 36 -41 52 -49 41 -20 142
-18 182 3 57 30 67 63 71 235 l4 152 -36 0 -36 0 0 -104 c0 -200 -15 -236 -99
-236 -79 0 -85 13 -89 191 l-3 149 -35 0 -34 0 0 -154z"/>
<path d="M850 460 l0 -30 65 0 65 0 0 -170 0 -170 35 0 35 0 0 170 0 170 65 0
65 0 0 30 0 30 -165 0 -165 0 0 -30z"/>
<path d="M1230 290 l0 -200 150 0 150 0 0 30 0 29 -112 3 -113 3 -3 58 -3 57
101 0 100 0 0 30 0 30 -100 0 -100 0 0 50 0 50 110 0 110 0 0 30 0 30 -145 0
-145 0 0 -200z"/>
<path d="M1580 290 l0 -200 35 0 35 0 0 68 c0 62 3 71 29 96 l29 27 66 -95 67
-96 73 0 73 0 20 52 20 53 79 0 79 0 19 -52 c18 -52 19 -53 58 -53 28 0 39 4
35 13 -3 6 -38 96 -77 200 l-73 187 -41 0 -41 0 -70 -185 c-38 -102 -73 -185
-77 -185 -3 0 -41 48 -82 107 l-76 107 77 78 78 78 -45 0 c-43 0 -48 -4 -132
-87 l-88 -88 0 88 0 87 -35 0 -35 0 0 -200z"/>
<path d="M2330 290 l0 -200 35 0 35 0 0 200 0 200 -35 0 -35 0 0 -200z"/>
</g>
</svg>
